<svg width="276" height="89" viewBox="0 0 276 89" fill="none" xmlns="http://www.w3.org/2000/svg">
<g filter="url(#filter0_d_153_37)">
<mask id="mask0_153_37" style="mask-type:alpha" maskUnits="userSpaceOnUse" x="63" y="26" width="184" height="33">
<path d="M246 26H63.239V41.5497L244.799 43.7958L63.239 44.8325V59H246V26Z" fill="#C4C4C4"/>
</mask>
<g mask="url(#mask0_153_37)">
<path d="M63.7538 26.5183H74.8747C77.5972 26.5183 79.7854 27.3335 81.4392 28.9637C83.1043 30.594 83.9368 32.7772 83.9368 35.5134C83.9368 38.2153 83.0593 40.3814 81.3042 42.0117C79.5492 43.642 77.2429 44.4572 74.3853 44.4572H70.909V51.1949H63.7538V26.5183ZM70.909 31.9735V39.1046H72.9171C74.1209 39.1046 75.0547 38.8025 75.7185 38.1982C76.3822 37.5826 76.7141 36.6933 76.7141 35.5305C76.7141 34.379 76.3822 33.5012 75.7185 32.8969C75.0659 32.2813 74.149 31.9735 72.9678 31.9735H70.909Z" fill="white"/>
<path d="M91.1676 51.4685C89.435 51.4685 87.9556 50.927 86.7293 49.8439C85.503 48.7495 84.8899 47.37 84.8899 45.7055C84.8899 43.9042 85.548 42.5134 86.8643 41.5329C88.1919 40.541 90.11 39.9653 92.6188 39.8057L96.7027 39.5492V38.6257C96.7027 38.0101 96.4946 37.5313 96.0783 37.1893C95.662 36.8473 95.122 36.6762 94.4583 36.6762C93.772 36.6762 93.2095 36.8416 92.7707 37.1722C92.332 37.5028 92.0844 37.9189 92.0282 38.4205H85.8518C85.9418 36.3912 86.7856 34.7894 88.3831 33.6152C89.9806 32.4295 92.1295 31.8367 94.8295 31.8367C97.4058 31.8367 99.4871 32.4352 101.073 33.6323C102.66 34.8179 103.453 36.3684 103.453 38.2837V51.1949H96.7027V48.664H96.5677C96.0952 49.5532 95.3583 50.243 94.357 50.7332C93.367 51.2234 92.3038 51.4685 91.1676 51.4685Z" fill="white"/>
<path d="M106.094 38.1811C106.094 36.2088 106.87 34.6583 108.422 33.5297C109.975 32.401 112.107 31.8367 114.818 31.8367C117.541 31.8367 119.667 32.4181 121.197 33.581C122.738 34.7438 123.509 36.357 123.509 38.4205H117.231C117.231 37.8049 117.006 37.3204 116.556 36.967C116.118 36.6021 115.521 36.4197 114.767 36.4197C114.149 36.4197 113.648 36.5394 113.266 36.7789C112.894 37.0069 112.709 37.3204 112.709 37.7194C112.709 38.3122 113.311 38.7227 114.514 38.9507L118.716 39.7886C120.561 40.1534 121.911 40.7577 122.766 41.6013C123.633 42.4336 124.066 43.5679 124.066 45.0044C124.066 47.0451 123.233 48.6697 121.568 49.8781C119.914 51.0752 117.715 51.6737 114.97 51.6737C112.101 51.6737 109.862 51.0866 108.254 49.9123C106.656 48.7267 105.795 47.1135 105.672 45.0728H112.354C112.422 45.6998 112.692 46.1957 113.164 46.5606C113.648 46.914 114.278 47.0907 115.054 47.0907C115.729 47.0907 116.258 46.9824 116.641 46.7658C117.023 46.5378 117.214 46.23 117.214 45.8423C117.214 45.5459 117.079 45.3065 116.809 45.1241C116.539 44.9303 116.089 44.7764 115.459 44.6624L111.865 43.9441C109.986 43.5679 108.552 42.8896 107.562 41.9091C106.583 40.9173 106.094 39.6746 106.094 38.1811Z" fill="white"/>
<path d="M125.947 38.1811C125.947 36.2088 126.723 34.6583 128.276 33.5297C129.828 32.401 131.96 31.8367 134.672 31.8367C137.394 31.8367 139.521 32.4181 141.051 33.581C142.592 34.7438 143.363 36.357 143.363 38.4205H137.085C137.085 37.8049 136.86 37.3204 136.41 36.967C135.971 36.6021 135.375 36.4197 134.621 36.4197C134.002 36.4197 133.502 36.5394 133.119 36.7789C132.748 37.0069 132.562 37.3204 132.562 37.7194C132.562 38.3122 133.164 38.7227 134.368 38.9507L138.57 39.7886C140.415 40.1534 141.765 40.7577 142.62 41.6013C143.486 42.4336 143.919 43.5679 143.919 45.0044C143.919 47.0451 143.087 48.6697 141.422 49.8781C139.768 51.0752 137.569 51.6737 134.824 51.6737C131.955 51.6737 129.716 51.0866 128.107 49.9123C126.51 48.7267 125.649 47.1135 125.525 45.0728H132.208C132.275 45.6998 132.545 46.1957 133.018 46.5606C133.502 46.914 134.132 47.0907 134.908 47.0907C135.583 47.0907 136.112 46.9824 136.494 46.7658C136.877 46.5378 137.068 46.23 137.068 45.8423C137.068 45.5459 136.933 45.3065 136.663 45.1241C136.393 44.9303 135.943 44.7764 135.313 44.6624L131.718 43.9441C129.84 43.5679 128.405 42.8896 127.415 41.9091C126.436 40.9173 125.947 39.6746 125.947 38.1811Z" fill="white"/>
<path d="M155.318 36.6591C154.531 36.6591 153.867 36.9214 153.327 37.4458C152.787 37.9702 152.483 38.6371 152.416 39.4466H158.221C158.165 38.6029 157.867 37.9303 157.327 37.4287C156.798 36.9157 156.128 36.6591 155.318 36.6591ZM158.424 45.0728H164.583C164.291 47.1135 163.323 48.7267 161.68 49.9123C160.038 51.0866 157.94 51.6737 155.386 51.6737C152.337 51.6737 149.952 50.8073 148.231 49.0744C146.509 47.3301 145.649 44.9246 145.649 41.8578C145.649 38.7683 146.504 36.3285 148.214 34.5386C149.924 32.7373 152.241 31.8367 155.167 31.8367C158.058 31.8367 160.364 32.7031 162.085 34.436C163.807 36.1575 164.667 38.4604 164.667 41.3448V43.243H152.315V43.6876C152.315 44.6111 152.613 45.3749 153.209 45.9791C153.805 46.572 154.565 46.8684 155.487 46.8684C156.196 46.8684 156.809 46.7088 157.327 46.3896C157.855 46.0703 158.221 45.6314 158.424 45.0728Z" fill="white"/>
<path d="M167.122 51.1949V32.3155H173.873V36.0264H174.008C174.48 34.6925 175.2 33.6779 176.168 32.9825C177.135 32.287 178.322 31.9393 179.728 31.9393C181.81 31.9393 183.407 32.5663 184.521 33.8204C185.646 35.0631 186.209 36.8245 186.209 39.1046V51.1949H179.29V40.6608C179.29 39.6917 179.065 38.9393 178.615 38.4034C178.176 37.8676 177.529 37.5997 176.674 37.5997C175.864 37.5997 175.223 37.8847 174.75 38.4547C174.278 39.0134 174.041 39.743 174.041 40.6437V51.1949H167.122Z" fill="white"/>
<path d="M196.443 44.8334C196.961 45.5402 197.692 45.8936 198.637 45.8936C199.582 45.8936 200.313 45.5459 200.831 44.8505C201.348 44.1436 201.607 43.1176 201.607 41.7723C201.607 40.427 201.343 39.3725 200.814 38.6086C200.285 37.8334 199.559 37.4458 198.637 37.4458C197.714 37.4458 196.989 37.8334 196.46 38.6086C195.942 39.3725 195.684 40.4213 195.684 41.7552C195.684 43.1005 195.937 44.1265 196.443 44.8334ZM198.367 58.3089C195.599 58.3089 193.383 57.756 191.718 56.6501C190.064 55.5556 189.164 54.1135 189.018 52.3236H195.667C195.768 52.7796 196.077 53.1501 196.595 53.4351C197.113 53.7315 197.754 53.8798 198.519 53.8798C199.52 53.8798 200.279 53.6403 200.797 53.1615C201.314 52.6827 201.573 52.0329 201.573 51.212V47.5866H201.438C201.134 48.5899 200.476 49.405 199.464 50.0321C198.451 50.6477 197.253 50.9555 195.869 50.9555C193.653 50.9555 191.887 50.1461 190.57 48.5272C189.254 46.8969 188.596 44.6225 188.596 41.7039C188.596 38.6714 189.243 36.3057 190.537 34.607C191.842 32.8969 193.653 32.0419 195.971 32.0419C197.298 32.0419 198.446 32.3839 199.413 33.068C200.392 33.7406 201.067 34.6241 201.438 35.7186H201.573V32.3155H208.492V51.041C208.492 53.2641 207.558 55.0312 205.691 56.3423C203.835 57.6534 201.393 58.3089 198.367 58.3089Z" fill="white"/>
<path d="M220.651 36.6591C219.863 36.6591 219.199 36.9214 218.659 37.4458C218.119 37.9702 217.816 38.6371 217.748 39.4466H223.553C223.497 38.6029 223.199 37.9303 222.659 37.4287C222.13 36.9157 221.461 36.6591 220.651 36.6591ZM223.756 45.0728H229.915C229.623 47.1135 228.655 48.7267 227.013 49.9123C225.37 51.0866 223.272 51.6737 220.718 51.6737C217.669 51.6737 215.284 50.8073 213.563 49.0744C211.842 47.3301 210.981 44.9246 210.981 41.8578C210.981 38.7683 211.836 36.3285 213.546 34.5386C215.256 32.7373 217.574 31.8367 220.499 31.8367C223.39 31.8367 225.696 32.7031 227.418 34.436C229.139 36.1575 230 38.4604 230 41.3448V43.243H217.647V43.6876C217.647 44.6111 217.945 45.3749 218.541 45.9791C219.137 46.572 219.897 46.8684 220.819 46.8684C221.528 46.8684 222.141 46.7088 222.659 46.3896C223.188 46.0703 223.553 45.6314 223.756 45.0728Z" fill="white"/>
<path d="M232.455 51.1949V32.3155H239.205V36.0264H239.34C240.037 33.3701 241.489 32.0419 243.694 32.0419C244.29 32.0419 244.83 32.1331 245.314 32.3155V38.1982C244.706 37.936 244.037 37.8049 243.305 37.8049C240.684 37.8049 239.374 39.1331 239.374 41.7894V51.1949H232.455Z" fill="white"/>
</g>
<path d="M49.7496 41.114H26L58.2667 26.1731L49.7496 41.114Z" fill="#80DD47"/>
<path d="M49.7496 44.059H26L58.2667 58.9999L49.7496 44.059Z" fill="#80DD47"/>
</g>
<defs>
<filter id="filter0_d_153_37" x="0" y="0.173096" width="275.314" height="88.8268" filterUnits="userSpaceOnUse" color-interpolation-filters="sRGB">
<feFlood flood-opacity="0" result="BackgroundImageFix"/>
<feColorMatrix in="SourceAlpha" type="matrix" values="0 0 0 0 0 0 0 0 0 0 0 0 0 0 0 0 0 0 127 0" result="hardAlpha"/>
<feMorphology radius="4" operator="dilate" in="SourceAlpha" result="effect1_dropShadow_153_37"/>
<feOffset dx="2" dy="2"/>
<feGaussianBlur stdDeviation="12"/>
<feColorMatrix type="matrix" values="0 0 0 0 0.243264 0 0 0 0 0.252144 0 0 0 0 0.258333 0 0 0 0.1 0"/>
<feBlend mode="normal" in2="BackgroundImageFix" result="effect1_dropShadow_153_37"/>
<feBlend mode="normal" in="SourceGraphic" in2="effect1_dropShadow_153_37" result="shape"/>
</filter>
</defs>
</svg>
